<mxfile host="app.diagrams.net" modified="2023-07-05T22:39:35.661Z" agent="Mozilla/5.0 (Macintosh; Intel Mac OS X 10_15_7) AppleWebKit/537.36 (KHTML, like Gecko) Chrome/114.0.0.0 Safari/537.36" version="21.6.1" etag="vwfV0rzjcKD0hZ0qvQg4" type="github">
  <diagram name="Page-1" id="n6TcOGDdC2dt3u_0Mr51">
    <mxGraphModel>
      <root>
        <mxCell id="0" />
        <mxCell id="1" parent="0" />
      </root>
    </mxGraphModel>
  </diagram>
</mxfile>
